<svg xmlns="http://www.w3.org/2000/svg" xmlns:xlink="http://www.w3.org/1999/xlink" xmlns:fi="http://pattern.flaticon.com/" x="0" y="0" width="256" height="256" viewBox="0 0 350 350"><rect x="0px" y="0px" width="100%" height="100%" opacity="1" fill="#ffffff"/><defs><g transform="matrix(-0.46875 0 0 0.46875 201.488125758171 232.5)" id="L1_4"><path d="m103.81 55.15c0 .59-.01 1.17-.04 1.75a48.191 48.191 0 0 1 -5.62 21.04c-.63 1.2-1.32 2.36-2.05 3.5a48.719 48.719 0 0 1 -23.73 19.23h-.01a45.961 45.961 0 0 1 -5.45 1.71h-.01a47.736 47.736 0 0 1 -10 1.39c-.58.03-1.16.04-1.75.04s-1.17-.01-1.75-.04a48.19 48.19 0 0 1 -15.44-3.09 48.757 48.757 0 0 1 -23.76-19.24c-.73-1.14-1.41-2.3-2.04-3.5a48.191 48.191 0 0 1 -5.62-21.04c-.03-.58-.04-1.16-.04-1.75s.01-1.17.04-1.75a48.276 48.276 0 0 1 5.61-21.03c.64-1.2 1.32-2.37 2.05-3.5a48.777 48.777 0 0 1 23.75-19.24 47.844 47.844 0 0 1 5.45-1.7h.01a47.734 47.734 0 0 1 9.99-1.39c.58-.03 1.16-.04 1.75-.04s1.17.01 1.75.04a48.171 48.171 0 0 1 15.46 3.09 48.818 48.818 0 0 1 23.74 19.24c.73 1.13 1.42 2.3 2.06 3.5a48.276 48.276 0 0 1 5.61 21.03c.03.58.04 1.16.04 1.75z" fill="#85c646"/><path d="m120.508 120.5a3.4 3.4 0 0 1 -4.809 0l-11.846-11.846 1.289-1.289 2.231-2.231 1.289-1.289 11.846 11.846a3.4 3.4 0 0 1 0 4.809z" fill="#e4e4e4"/><circle cx="85" cy="85" r="24" fill="#e4e4e4"/><g fill="#215063"><path d="m121.745 114.454-1.537-1.537a1.75 1.75 0 0 0 -2.475 2.475l1.538 1.537a1.651 1.651 0 0 1 0 2.334 1.69 1.69 0 0 1 -2.334 0l-10.609-10.608 1.359-1.359c.019-.018.041-.03.06-.049s.031-.041.049-.06l1-1a1.751 1.751 0 0 0 1.778-2.9l-.675-.676a1.749 1.749 0 0 0 -2.475 0l-.921.921-1.6-1.6a25.847 25.847 0 0 0 -.878-34.521 50.191 50.191 0 0 0 -5.243-37.478v-.008c-.036-.062-.066-.127-.1-.189a1.309 1.309 0 0 0 -.079-.129 50.429 50.429 0 0 0 -9.759-11.943 1.75 1.75 0 0 0 -2.34 2.6 46.962 46.962 0 0 1 7.489 8.6h-13.851a63.872 63.872 0 0 0 -7.009-17.03 46.759 46.759 0 0 1 5.79 2.876 1.75 1.75 0 1 0 1.777-3.01 50.12 50.12 0 0 0 -11.726-5.031 50.528 50.528 0 0 0 -13.716-1.909c-.035 0-.068-.01-.1-.01s-.07.009-.105.011a50.448 50.448 0 0 0 -13.713 1.906c-.046.014-.092.029-.138.046a50.386 50.386 0 0 0 -36.452 48.437 50.4 50.4 0 0 0 36.594 48.488l.05.013a50.363 50.363 0 0 0 26.041.371 25.7 25.7 0 0 0 8.525 5.378 1.75 1.75 0 1 0 1.244-3.272 22.434 22.434 0 1 1 7.965 1.456 1.75 1.75 0 0 0 0 3.5 25.81 25.81 0 0 0 17.3-6.638l1.561 1.554-1.414 1.413a1.751 1.751 0 0 0 0 2.475l11.845 11.845a5.15 5.15 0 1 0 7.284-7.283zm-38.359-61.054a103.558 103.558 0 0 0 -2.394-21.039h15.134a46.765 46.765 0 0 1 5.874 21.039zm-29.986 48.593a47.253 47.253 0 0 1 -10.572-1.585c-3.754-4.626-6.846-11.138-9.025-18.968h19.597zm-20.49-24.053a100.965 100.965 0 0 1 -2.491-21.04h22.981v21.04zm-18.738 0a46.827 46.827 0 0 1 -5.864-21.04h18.61a103.28 103.28 0 0 0 2.4 21.036zm0-45.575h15.145a103.255 103.255 0 0 0 -2.4 21.039h-18.609a46.748 46.748 0 0 1 5.866-21.039zm16.247 21.035a100.943 100.943 0 0 1 2.492-21.039h20.489v21.039zm12.415-43.5a46.815 46.815 0 0 1 10.566-1.583v20.548h-19.6c2.187-7.829 5.279-14.341 9.034-18.965zm14.066 22.465h20.5a101.165 101.165 0 0 1 2.485 21.035h-22.985zm0-3.5v-20.548a46.872 46.872 0 0 1 10.581 1.583c3.754 4.631 6.845 11.141 9.021 18.963zm-19.72-17.035a63.912 63.912 0 0 0 -7.012 17.035h-13.851a46.607 46.607 0 0 1 20.863-17.035zm-20.866 69.61h13.853a63.936 63.936 0 0 0 7.02 17.05 46.642 46.642 0 0 1 -20.873-17.05zm48.436 19.624a47.086 47.086 0 0 1 -7.85.936v-20.56h2.617a25.731 25.731 0 0 0 5.229 19.624zm-4.469-23.124h-3.381v-21.04h22.985q-.024 1.437-.086 2.9a26.005 26.005 0 0 0 -19.518 18.14zm23.041-18.624c.03-.812.051-1.614.063-2.412h18.615a47 47 0 0 1 -.929 7.814 25.783 25.783 0 0 0 -15.9-5.475c-.624 0-1.238.03-1.849.073z"/><path d="m113.671 111.33a1.75 1.75 0 0 0 2.475-2.476l-1.834-1.833a1.75 1.75 0 0 0 -2.474 2.476z"/><path d="m100.584 85.166a1.75 1.75 0 0 0 3.5 0 18.838 18.838 0 0 0 -13.326-18.076 1.75 1.75 0 1 0 -1.037 3.343 15.354 15.354 0 0 1 10.863 14.733z"/></g></g><g transform="matrix(0.6896551847457886 0 0 0.6896551847457886 242.5 67.5)" id="L1_5"><rect x="0px" y="0px" width="58px" height="58px" fill="#ecf0f1"/><rect x="0px" y="0px" width="58px" height="12px" fill="#546a79"/><circle cx="6" cy="6" r="3" fill="#ed7161"/><circle cx="15" cy="6" r="3" fill="#f0c419"/><circle cx="24" cy="6" r="3" fill="#4fba6f"/><rect x="5px" y="17px" width="41px" height="6px" fill="#ffffff"/><rect x="46px" y="17px" width="7px" height="6px" fill="#95a5a5"/><path d="M38,34H6c-0.552,0-1-0.448-1-1s0.448-1,1-1h32c0.552,0,1,0.448,1,1S38.552,34,38,34z" fill="#bdc3c7"/><path d="M38,38H6c-0.552,0-1-0.448-1-1s0.448-1,1-1h32c0.552,0,1,0.448,1,1S38.552,38,38,38z" fill="#bdc3c7"/><path d="M28,30H6c-0.552,0-1-0.448-1-1s0.448-1,1-1h22c0.552,0,1,0.448,1,1S28.552,30,28,30z" fill="#0096e6"/><path d="M38,49H6c-0.552,0-1-0.448-1-1s0.448-1,1-1h32c0.552,0,1,0.448,1,1S38.552,49,38,49z" fill="#bdc3c7"/><path d="M38,53H6c-0.552,0-1-0.448-1-1s0.448-1,1-1h32c0.552,0,1,0.448,1,1S38.552,53,38,53z" fill="#bdc3c7"/><path d="M28,45H6c-0.552,0-1-0.448-1-1s0.448-1,1-1h22c0.552,0,1,0.448,1,1S28.552,45,28,45z" fill="#0096e6"/></g><g transform="matrix(0.15625 0 0 0.15625 340 165)" id="L1_6"><path d="m103.81 55.15c0 .59-.01 1.17-.04 1.75a48.191 48.191 0 0 1 -5.62 21.04c-.63 1.2-1.32 2.36-2.05 3.5a48.719 48.719 0 0 1 -23.73 19.23h-.01a45.961 45.961 0 0 1 -5.45 1.71h-.01a47.736 47.736 0 0 1 -10 1.39c-.58.03-1.16.04-1.75.04s-1.17-.01-1.75-.04a48.19 48.19 0 0 1 -15.44-3.09 48.757 48.757 0 0 1 -23.76-19.24c-.73-1.14-1.41-2.3-2.04-3.5a48.191 48.191 0 0 1 -5.62-21.04c-.03-.58-.04-1.16-.04-1.75s.01-1.17.04-1.75a48.276 48.276 0 0 1 5.61-21.03c.64-1.2 1.32-2.37 2.05-3.5a48.777 48.777 0 0 1 23.75-19.24 47.844 47.844 0 0 1 5.45-1.7h.01a47.734 47.734 0 0 1 9.99-1.39c.58-.03 1.16-.04 1.75-.04s1.17.01 1.75.04a48.171 48.171 0 0 1 15.46 3.09 48.818 48.818 0 0 1 23.74 19.24c.73 1.13 1.42 2.3 2.06 3.5a48.276 48.276 0 0 1 5.61 21.03c.03.58.04 1.16.04 1.75z" fill="#85c646"/><path d="m120.508 120.5a3.4 3.4 0 0 1 -4.809 0l-11.846-11.846 1.289-1.289 2.231-2.231 1.289-1.289 11.846 11.846a3.4 3.4 0 0 1 0 4.809z" fill="#e4e4e4"/><circle cx="85" cy="85" r="24" fill="#e4e4e4"/><g fill="#215063"><path d="m121.745 114.454-1.537-1.537a1.75 1.75 0 0 0 -2.475 2.475l1.538 1.537a1.651 1.651 0 0 1 0 2.334 1.69 1.69 0 0 1 -2.334 0l-10.609-10.608 1.359-1.359c.019-.018.041-.03.06-.049s.031-.041.049-.06l1-1a1.751 1.751 0 0 0 1.778-2.9l-.675-.676a1.749 1.749 0 0 0 -2.475 0l-.921.921-1.6-1.6a25.847 25.847 0 0 0 -.878-34.521 50.191 50.191 0 0 0 -5.243-37.478v-.008c-.036-.062-.066-.127-.1-.189a1.309 1.309 0 0 0 -.079-.129 50.429 50.429 0 0 0 -9.759-11.943 1.75 1.75 0 0 0 -2.34 2.6 46.962 46.962 0 0 1 7.489 8.6h-13.851a63.872 63.872 0 0 0 -7.009-17.03 46.759 46.759 0 0 1 5.79 2.876 1.75 1.75 0 1 0 1.777-3.01 50.12 50.12 0 0 0 -11.726-5.031 50.528 50.528 0 0 0 -13.716-1.909c-.035 0-.068-.01-.1-.01s-.07.009-.105.011a50.448 50.448 0 0 0 -13.713 1.906c-.046.014-.092.029-.138.046a50.386 50.386 0 0 0 -36.452 48.437 50.4 50.4 0 0 0 36.594 48.488l.05.013a50.363 50.363 0 0 0 26.041.371 25.7 25.7 0 0 0 8.525 5.378 1.75 1.75 0 1 0 1.244-3.272 22.434 22.434 0 1 1 7.965 1.456 1.75 1.75 0 0 0 0 3.5 25.81 25.81 0 0 0 17.3-6.638l1.561 1.554-1.414 1.413a1.751 1.751 0 0 0 0 2.475l11.845 11.845a5.15 5.15 0 1 0 7.284-7.283zm-38.359-61.054a103.558 103.558 0 0 0 -2.394-21.039h15.134a46.765 46.765 0 0 1 5.874 21.039zm-29.986 48.593a47.253 47.253 0 0 1 -10.572-1.585c-3.754-4.626-6.846-11.138-9.025-18.968h19.597zm-20.49-24.053a100.965 100.965 0 0 1 -2.491-21.04h22.981v21.04zm-18.738 0a46.827 46.827 0 0 1 -5.864-21.04h18.61a103.28 103.28 0 0 0 2.4 21.036zm0-45.575h15.145a103.255 103.255 0 0 0 -2.4 21.039h-18.609a46.748 46.748 0 0 1 5.866-21.039zm16.247 21.035a100.943 100.943 0 0 1 2.492-21.039h20.489v21.039zm12.415-43.5a46.815 46.815 0 0 1 10.566-1.583v20.548h-19.6c2.187-7.829 5.279-14.341 9.034-18.965zm14.066 22.465h20.5a101.165 101.165 0 0 1 2.485 21.035h-22.985zm0-3.5v-20.548a46.872 46.872 0 0 1 10.581 1.583c3.754 4.631 6.845 11.141 9.021 18.963zm-19.72-17.035a63.912 63.912 0 0 0 -7.012 17.035h-13.851a46.607 46.607 0 0 1 20.863-17.035zm-20.866 69.61h13.853a63.936 63.936 0 0 0 7.02 17.05 46.642 46.642 0 0 1 -20.873-17.05zm48.436 19.624a47.086 47.086 0 0 1 -7.85.936v-20.56h2.617a25.731 25.731 0 0 0 5.229 19.624zm-4.469-23.124h-3.381v-21.04h22.985q-.024 1.437-.086 2.9a26.005 26.005 0 0 0 -19.518 18.14zm23.041-18.624c.03-.812.051-1.614.063-2.412h18.615a47 47 0 0 1 -.929 7.814 25.783 25.783 0 0 0 -15.9-5.475c-.624 0-1.238.03-1.849.073z"/><path d="m113.671 111.33a1.75 1.75 0 0 0 2.475-2.476l-1.834-1.833a1.75 1.75 0 0 0 -2.474 2.476z"/><path d="m100.584 85.166a1.75 1.75 0 0 0 3.5 0 18.838 18.838 0 0 0 -13.326-18.076 1.75 1.75 0 1 0 -1.037 3.343 15.354 15.354 0 0 1 10.863 14.733z"/></g></g><g transform="matrix(0.3125 0 0 0.3125 165 165)" id="L1_7"><path d="m7 47a2.006 2.006 0 0 0 2 2h46a2.006 2.006 0 0 0 2-2v-22h-50zm4-5v-11a2.006 2.006 0 0 1 2-2h14a2.006 2.006 0 0 1 2 2v12a2.006 2.006 0 0 1 -2 2h-14a2.006 2.006 0 0 1 -2-2z" fill="#78b9eb"/><path d="m19 53h26v4h-26z" fill="#78b9eb"/><path d="m19 9h26v4h-26z" fill="#78b9eb"/><path d="m23 6h18a2.006 2.006 0 0 0 2-2v-1h-22v1a2.006 2.006 0 0 0 2 2z" fill="#78b9eb"/><g fill="#1a6fb0"><path d="m61 12h-11v-7a3 3 0 0 0 -3-3h-30a3 3 0 0 0 -3 3v7h-11a1 1 0 0 0 -1 1v40a1 1 0 0 0 1 1h11v5a3 3 0 0 0 3 3h30a3 3 0 0 0 3-3v-5h11a1 1 0 0 0 1-1v-40a1 1 0 0 0 -1-1zm-19-8a1 1 0 0 1 -1 1h-18a1 1 0 0 1 -1-1zm-26 1a1 1 0 0 1 1-1h3a3 3 0 0 0 3 3h18a3 3 0 0 0 3-3h3a1 1 0 0 1 1 1v7h-2v-3a1 1 0 0 0 -1-1h-26a1 1 0 0 0 -1 1v3h-2zm28 7h-24v-2h24zm4 47a1 1 0 0 1 -1 1h-30a1 1 0 0 1 -1-1v-5h2v3a1 1 0 0 0 1 1h26a1 1 0 0 0 1-1v-3h2zm-28-5h24v2h-24zm40-2h-56v-38h56z"/><path d="m9 50h46a3 3 0 0 0 3-3v-28a3 3 0 0 0 -3-3h-46a3 3 0 0 0 -3 3v28a3 3 0 0 0 3 3zm46-2h-46a1 1 0 0 1 -1-1v-21h48v21a1 1 0 0 1 -1 1zm-46-30h46a1 1 0 0 1 1 1v5h-48v-5a1 1 0 0 1 1-1z"/><path d="m27 28h-14a3 3 0 0 0 -3 3v12a3 3 0 0 0 3 3h14a3 3 0 0 0 3-3v-12a3 3 0 0 0 -3-3zm-14 2h14a1 1 0 0 1 1 1v5.919l-3.375-2.7a1 1 0 0 0 -1.393.14l-2.4 2.877-4.063-4.876a1 1 0 0 0 -1.643.154l-3.126 5.627v-7.141a1 1 0 0 1 1-1zm-1 13v-.741l4.166-7.5 7.699 9.241h-10.865a1 1 0 0 1 -1-1zm15 1h-.531l-4.335-5.2 2.007-2.405 3.859 3.086v3.519a1 1 0 0 1 -1 1z"/><path d="m34 28h12v2h-12z"/><path d="m48 28h6v2h-6z"/><path d="m34 32h6v2h-6z"/><path d="m42 32h12v2h-12z"/><path d="m34 36h2v2h-2z"/><path d="m38 36h16v2h-16z"/><path d="m34 40h8v2h-8z"/><path d="m44 40h10v2h-10z"/><path d="m34 44h14v2h-14z"/><path d="m50 44h4v2h-4z"/><path d="m10 20h2v2h-2z"/><path d="m14 20h2v2h-2z"/><path d="m18 20h2v2h-2z"/><path d="m45 5h2v2h-2z"/></g></g><path d="m123.25 80.125v6.625a1.75 1.75 0 0 1 -3.5 0v-6.625a1.75 1.75 0 0 1 3.5 0zm-1.75-66.525h-82.417a1.75 1.75 0 0 0 0 3.5h80.667v10.637h-111.5v-10.637h19.333a1.75 1.75 0 0 0 0-3.5h-21.083a1.751 1.751 0 0 0 -1.75 1.75v97.308a1.751 1.751 0 0 0 1.75 1.742h115a1.75 1.75 0 0 0 1.75-1.75v-16.65a1.75 1.75 0 0 0 -3.5 0v14.9h-111.5v-79.663h111.5v39.827a1.75 1.75 0 0 0 3.5 0v-55.718a1.75 1.75 0 0 0 -1.75-1.746zm-32.634 42.728a1.762 1.762 0 0 1 .215.375 28.809 28.809 0 0 1 0 28.727 1.708 1.708 0 0 1 -.216.376 29.036 29.036 0 0 1 -16.855 13.04 1.663 1.663 0 0 1 -.232.066 28.775 28.775 0 0 1 -15.562 0 1.719 1.719 0 0 1 -.226-.064 29.034 29.034 0 0 1 -16.853-13.039 1.765 1.765 0 0 1 -.22-.382 28.808 28.808 0 0 1 0-28.721 1.692 1.692 0 0 1 .219-.381 29.035 29.035 0 0 1 16.832-13.032 1.878 1.878 0 0 1 .219-.062 28.779 28.779 0 0 1 15.627 0 1.688 1.688 0 0 1 .221.063 29.042 29.042 0 0 1 16.831 13.034zm.484 16.488h-8.85a58.671 58.671 0 0 1 -1.141 10.2h7.062a25.243 25.243 0 0 0 2.929-10.2zm-18.922 22.842a27.982 27.982 0 0 0 4.464-9.14h-9.142v9.9a25.23 25.23 0 0 0 4.678-.76zm-8.178.758v-9.9h-9.142a27.962 27.962 0 0 0 4.465 9.14 25.206 25.206 0 0 0 4.677.76zm-20.673-13.4h7.061a58.6 58.6 0 0 1 -1.141-10.2h-8.846a25.211 25.211 0 0 0 2.926 10.202zm-2.926-13.7h8.849a58.626 58.626 0 0 1 1.141-10.2h-7.064a25.211 25.211 0 0 0 -2.926 10.2zm18.922-22.841a27.962 27.962 0 0 0 -4.465 9.14h9.142v-9.9a25.289 25.289 0 0 0 -4.677.76zm8.177-.758v9.9h9.142a27.971 27.971 0 0 0 -4.464-9.14 25.314 25.314 0 0 0 -4.678-.76zm0 13.4v10.2h11.25a55.59 55.59 0 0 0 -1.219-10.2zm-13.532 0a55.472 55.472 0 0 0 -1.218 10.199h11.25v-10.2zm0 23.9h10.032v-10.2h-11.25a55.462 55.462 0 0 0 1.218 10.201zm23.564 0a55.524 55.524 0 0 0 1.218-10.201h-11.25v10.2zm13.568-13.7a25.243 25.243 0 0 0 -2.926-10.2h-7.062a58.659 58.659 0 0 1 1.141 10.2zm-13.483-20.717a38.823 38.823 0 0 1 2.667 7.015h5.627a25.589 25.589 0 0 0 -8.294-7.015zm-32.028 7.015h5.628a38.732 38.732 0 0 1 2.667-7.015 25.57 25.57 0 0 0 -8.295 7.015zm8.294 37.918a38.823 38.823 0 0 1 -2.667-7.015h-5.627a25.577 25.577 0 0 0 8.294 7.015zm32.028-7.015h-5.627a38.852 38.852 0 0 1 -2.667 7.015 25.577 25.577 0 0 0 8.294-7.015z" transform="matrix(0.703125 0 0 0.703125 305 305)" fill="#000000" id="L1_8"/><path d="m123.25 80.125v6.625a1.75 1.75 0 0 1 -3.5 0v-6.625a1.75 1.75 0 0 1 3.5 0zm-1.75-66.525h-82.417a1.75 1.75 0 0 0 0 3.5h80.667v10.637h-111.5v-10.637h19.333a1.75 1.75 0 0 0 0-3.5h-21.083a1.751 1.751 0 0 0 -1.75 1.75v97.308a1.751 1.751 0 0 0 1.75 1.742h115a1.75 1.75 0 0 0 1.75-1.75v-16.65a1.75 1.75 0 0 0 -3.5 0v14.9h-111.5v-79.663h111.5v39.827a1.75 1.75 0 0 0 3.5 0v-55.718a1.75 1.75 0 0 0 -1.75-1.746zm-32.634 42.728a1.762 1.762 0 0 1 .215.375 28.809 28.809 0 0 1 0 28.727 1.708 1.708 0 0 1 -.216.376 29.036 29.036 0 0 1 -16.855 13.04 1.663 1.663 0 0 1 -.232.066 28.775 28.775 0 0 1 -15.562 0 1.719 1.719 0 0 1 -.226-.064 29.034 29.034 0 0 1 -16.853-13.039 1.765 1.765 0 0 1 -.22-.382 28.808 28.808 0 0 1 0-28.721 1.692 1.692 0 0 1 .219-.381 29.035 29.035 0 0 1 16.832-13.032 1.878 1.878 0 0 1 .219-.062 28.779 28.779 0 0 1 15.627 0 1.688 1.688 0 0 1 .221.063 29.042 29.042 0 0 1 16.831 13.034zm.484 16.488h-8.85a58.671 58.671 0 0 1 -1.141 10.2h7.062a25.243 25.243 0 0 0 2.929-10.2zm-18.922 22.842a27.982 27.982 0 0 0 4.464-9.14h-9.142v9.9a25.23 25.23 0 0 0 4.678-.76zm-8.178.758v-9.9h-9.142a27.962 27.962 0 0 0 4.465 9.14 25.206 25.206 0 0 0 4.677.76zm-20.673-13.4h7.061a58.6 58.6 0 0 1 -1.141-10.2h-8.846a25.211 25.211 0 0 0 2.926 10.202zm-2.926-13.7h8.849a58.626 58.626 0 0 1 1.141-10.2h-7.064a25.211 25.211 0 0 0 -2.926 10.2zm18.922-22.841a27.962 27.962 0 0 0 -4.465 9.14h9.142v-9.9a25.289 25.289 0 0 0 -4.677.76zm8.177-.758v9.9h9.142a27.971 27.971 0 0 0 -4.464-9.14 25.314 25.314 0 0 0 -4.678-.76zm0 13.4v10.2h11.25a55.59 55.59 0 0 0 -1.219-10.2zm-13.532 0a55.472 55.472 0 0 0 -1.218 10.199h11.25v-10.2zm0 23.9h10.032v-10.2h-11.25a55.462 55.462 0 0 0 1.218 10.201zm23.564 0a55.524 55.524 0 0 0 1.218-10.201h-11.25v10.2zm13.568-13.7a25.243 25.243 0 0 0 -2.926-10.2h-7.062a58.659 58.659 0 0 1 1.141 10.2zm-13.483-20.717a38.823 38.823 0 0 1 2.667 7.015h5.627a25.589 25.589 0 0 0 -8.294-7.015zm-32.028 7.015h5.628a38.732 38.732 0 0 1 2.667-7.015 25.57 25.57 0 0 0 -8.295 7.015zm8.294 37.918a38.823 38.823 0 0 1 -2.667-7.015h-5.627a25.577 25.577 0 0 0 8.294 7.015zm32.028-7.015h-5.627a38.852 38.852 0 0 1 -2.667 7.015 25.577 25.577 0 0 0 8.294-7.015z" transform="matrix(-0.46875 0 0 0.46875 117.5 57.5)" fill="#000000" id="L1_9"/><path d="M165,0C74.019,0,0,74.019,0,165s74.019,165,165,165c90.982,0,165-74.019,165-165S255.982,0,165,0z" transform="matrix(0.03030303120613098 0 0 0.03030303120613098 345 82.5)" id="L1_11" fill="#74a110"/><path d="M165,0C74.019,0,0,74.019,0,165s74.019,165,165,165c90.982,0,165-74.019,165-165S255.982,0,165,0z" transform="matrix(0.03030303120613098 0 0 0.03030303120613098 82.5 257.5)" id="L1_12" fill="#e054f4"/></defs><g fi:class="KUsePattern"><pattern id="pattern_L1_4" width="350" height="350" patternUnits="userSpaceOnUse"><use xlink:href="#L1_4" x="-350" y="-350"/><use xlink:href="#L1_4" x="0" y="-350"/><use xlink:href="#L1_4" x="350" y="-350"/><use xlink:href="#L1_4" x="-350" y="0"/><use xlink:href="#L1_4" x="0" y="0"/><use xlink:href="#L1_4" x="350" y="0"/><use xlink:href="#L1_4" x="-350" y="350"/><use xlink:href="#L1_4" x="0" y="350"/><use xlink:href="#L1_4" x="350" y="350"/></pattern><rect x="0" y="0" width="100%" height="100%" fill="url(#pattern_L1_4)"/></g><g fi:class="KUsePattern"><pattern id="pattern_L1_5" width="350" height="350" patternUnits="userSpaceOnUse"><use xlink:href="#L1_5" x="-350" y="-350"/><use xlink:href="#L1_5" x="0" y="-350"/><use xlink:href="#L1_5" x="350" y="-350"/><use xlink:href="#L1_5" x="-350" y="0"/><use xlink:href="#L1_5" x="0" y="0"/><use xlink:href="#L1_5" x="350" y="0"/><use xlink:href="#L1_5" x="-350" y="350"/><use xlink:href="#L1_5" x="0" y="350"/><use xlink:href="#L1_5" x="350" y="350"/></pattern><rect x="0" y="0" width="100%" height="100%" fill="url(#pattern_L1_5)"/></g><g fi:class="KUsePattern"><pattern id="pattern_L1_6" width="350" height="350" patternUnits="userSpaceOnUse"><use xlink:href="#L1_6" x="-350" y="-350"/><use xlink:href="#L1_6" x="0" y="-350"/><use xlink:href="#L1_6" x="350" y="-350"/><use xlink:href="#L1_6" x="-350" y="0"/><use xlink:href="#L1_6" x="0" y="0"/><use xlink:href="#L1_6" x="350" y="0"/><use xlink:href="#L1_6" x="-350" y="350"/><use xlink:href="#L1_6" x="0" y="350"/><use xlink:href="#L1_6" x="350" y="350"/></pattern><rect x="0" y="0" width="100%" height="100%" fill="url(#pattern_L1_6)"/></g><g fi:class="KUsePattern"><pattern id="pattern_L1_7" width="350" height="350" patternUnits="userSpaceOnUse"><use xlink:href="#L1_7" x="-350" y="-350"/><use xlink:href="#L1_7" x="0" y="-350"/><use xlink:href="#L1_7" x="350" y="-350"/><use xlink:href="#L1_7" x="-350" y="0"/><use xlink:href="#L1_7" x="0" y="0"/><use xlink:href="#L1_7" x="350" y="0"/><use xlink:href="#L1_7" x="-350" y="350"/><use xlink:href="#L1_7" x="0" y="350"/><use xlink:href="#L1_7" x="350" y="350"/></pattern><rect x="0" y="0" width="100%" height="100%" fill="url(#pattern_L1_7)"/></g><g fi:class="KUsePattern"><pattern id="pattern_L1_8" width="350" height="350" patternUnits="userSpaceOnUse"><use xlink:href="#L1_8" x="-350" y="-350"/><use xlink:href="#L1_8" x="0" y="-350"/><use xlink:href="#L1_8" x="350" y="-350"/><use xlink:href="#L1_8" x="-350" y="0"/><use xlink:href="#L1_8" x="0" y="0"/><use xlink:href="#L1_8" x="350" y="0"/><use xlink:href="#L1_8" x="-350" y="350"/><use xlink:href="#L1_8" x="0" y="350"/><use xlink:href="#L1_8" x="350" y="350"/></pattern><rect x="0" y="0" width="100%" height="100%" fill="url(#pattern_L1_8)"/></g><g fi:class="KUsePattern"><pattern id="pattern_L1_9" width="350" height="350" patternUnits="userSpaceOnUse"><use xlink:href="#L1_9" x="-350" y="-350"/><use xlink:href="#L1_9" x="0" y="-350"/><use xlink:href="#L1_9" x="350" y="-350"/><use xlink:href="#L1_9" x="-350" y="0"/><use xlink:href="#L1_9" x="0" y="0"/><use xlink:href="#L1_9" x="350" y="0"/><use xlink:href="#L1_9" x="-350" y="350"/><use xlink:href="#L1_9" x="0" y="350"/><use xlink:href="#L1_9" x="350" y="350"/></pattern><rect x="0" y="0" width="100%" height="100%" fill="url(#pattern_L1_9)"/></g><g fi:class="KUsePattern"><pattern id="pattern_L1_11" width="350" height="350" patternUnits="userSpaceOnUse"><use xlink:href="#L1_11" x="-350" y="-350"/><use xlink:href="#L1_11" x="0" y="-350"/><use xlink:href="#L1_11" x="350" y="-350"/><use xlink:href="#L1_11" x="-350" y="0"/><use xlink:href="#L1_11" x="0" y="0"/><use xlink:href="#L1_11" x="350" y="0"/><use xlink:href="#L1_11" x="-350" y="350"/><use xlink:href="#L1_11" x="0" y="350"/><use xlink:href="#L1_11" x="350" y="350"/></pattern><rect x="0" y="0" width="100%" height="100%" fill="url(#pattern_L1_11)"/></g><g fi:class="KUsePattern"><pattern id="pattern_L1_12" width="350" height="350" patternUnits="userSpaceOnUse"><use xlink:href="#L1_12" x="-350" y="-350"/><use xlink:href="#L1_12" x="0" y="-350"/><use xlink:href="#L1_12" x="350" y="-350"/><use xlink:href="#L1_12" x="-350" y="0"/><use xlink:href="#L1_12" x="0" y="0"/><use xlink:href="#L1_12" x="350" y="0"/><use xlink:href="#L1_12" x="-350" y="350"/><use xlink:href="#L1_12" x="0" y="350"/><use xlink:href="#L1_12" x="350" y="350"/></pattern><rect x="0" y="0" width="100%" height="100%" fill="url(#pattern_L1_12)"/></g></svg>